<svg xmlns="http://www.w3.org/2000/svg" viewBox="0 0 129.06 37.93"><defs><style>.cls-1{fill:#fff;}</style></defs><title>logo</title><g id="Layer_2" data-name="Layer 2"><path class="cls-1" d="M73.85,17.89a2.07,2.07,0,0,1-1.44-.59,3.53,3.53,0,0,0-.21,1.18,3.65,3.65,0,1,0,3.64-3.65l-.22,0a1.9,1.9,0,0,1,.29,1A2.06,2.06,0,0,1,73.85,17.89Z"/><path class="cls-1" d="M9.21,17.08c-2.37-.72-4.58-1.2-4.58-2.88,0-1.36,1.23-2.12,3-2.12a8.31,8.31,0,0,1,4.13,1.22.71.71,0,0,0,1.06-.21L14,11.41a.62.62,0,0,0-.2-1A11.76,11.76,0,0,0,7.82,8.81C4,8.81.69,10.73.69,14.59s3.2,4.84,6,5.71c2.23.68,4.17,1.22,4.17,3,0,1.57-1.31,2.44-3.27,2.44A9.7,9.7,0,0,1,2.34,23.9c-.43-.3-.8-.26-1.06.16L.16,25.93A.68.68,0,0,0,.38,27a13.32,13.32,0,0,0,7.18,2.13c4.27,0,7.33-2.15,7.33-6.15S11.92,17.91,9.21,17.08Z"/><path class="cls-1" d="M30.2,8.81A8.87,8.87,0,0,0,24,11.1c-.5.46-.87.33-.87-.35V9.94a.69.69,0,0,0-.75-.76H19.8a.69.69,0,0,0-.75.76V37.18a.68.68,0,0,0,.75.75h2.61a.68.68,0,0,0,.75-.75v-10c0-.67.37-.8.87-.34a8.94,8.94,0,0,0,6.17,2.28A9.87,9.87,0,0,0,39.88,19,9.9,9.9,0,0,0,30.2,8.81Zm-.87,16.68A6.37,6.37,0,0,1,22.89,19a6.45,6.45,0,1,1,12.89,0A6.39,6.39,0,0,1,29.33,25.49Z"/><path class="cls-1" d="M82,23.08a.67.67,0,0,0-1,.13,6.16,6.16,0,0,1-4.84,2.18A6.31,6.31,0,0,1,69.63,19a6.3,6.3,0,0,1,6.44-6.45,6.19,6.19,0,0,1,4.84,2.18.69.69,0,0,0,1,.13l1.9-1.53A.68.68,0,0,0,84,12.21a10.56,10.56,0,0,0-7.89-3.4,10.18,10.18,0,0,0-10.21,7.92H62.81a9.84,9.84,0,0,0-9.9-7.94A10.16,10.16,0,1,0,53,29.11a9.89,9.89,0,0,0,8.47-4.4c.24-.41.09-.76-.39-1l-1.93-.81a.79.79,0,0,0-1.06.31,6.45,6.45,0,0,1-11.41-2.9c-.11-.5.2-.79.7-.79h1.9a3.62,3.62,0,0,0,6.94,0h9.44a10.13,10.13,0,0,0,10.42,9.53A10.59,10.59,0,0,0,84,25.61a.66.66,0,0,0-.17-1ZM47.11,15.86a6.17,6.17,0,0,1,5.82-3.8,6,6,0,0,1,5.73,3.8c.22.54-.09.87-.6.87H55.94a3.64,3.64,0,0,0-3.18-1.9l-.22,0a1.89,1.89,0,0,1,.28,1,2.06,2.06,0,0,1-.22.9H47.74C47.21,16.73,46.89,16.38,47.11,15.86Z"/><path class="cls-1" d="M97.73,9.18H94.42a.67.67,0,0,1-.75-.76V4.52a.68.68,0,0,0-.76-.75H90.3a.68.68,0,0,0-.75.75v3.9a.68.68,0,0,1-.76.76H87.11a.69.69,0,0,0-.76.76v1.64a.69.69,0,0,0,.76.76h1.68a.68.68,0,0,1,.76.75V23c0,3.71,2.36,5.73,5.94,5.73h2.2a.68.68,0,0,0,.76-.76V26.19a.68.68,0,0,0-.76-.76H96.33c-1.57,0-2.66-1-2.66-2.9V13.09a.67.67,0,0,1,.75-.75h3.31a.69.69,0,0,0,.76-.76V9.94A.69.69,0,0,0,97.73,9.18Z"/><path class="cls-1" d="M104.1,0a2.57,2.57,0,0,0-2.59,2.57,2.58,2.58,0,0,0,5.15,0A2.56,2.56,0,0,0,104.1,0Z"/><path class="cls-1" d="M105.37,9.18h-2.58a.69.69,0,0,0-.76.76V28a.69.69,0,0,0,.76.76h2.58a.68.68,0,0,0,.76-.76v-18A.69.69,0,0,0,105.37,9.18Z"/><path class="cls-1" d="M128.4,9.18h-2.77a.85.85,0,0,0-.89.59l-5.07,12.59c-.26.67-.74.67-1,0L113.61,9.77a.87.87,0,0,0-.89-.59H110c-.57,0-.79.35-.57.87l8,18.11a.89.89,0,0,0,.88.58h1.85a.85.85,0,0,0,.87-.58l8-18.11C129.19,9.53,129,9.18,128.4,9.18Z"/></g></svg>