<svg xmlns="http://www.w3.org/2000/svg" xmlns:xlink="http://www.w3.org/1999/xlink" xmlns:sketch="http://www.bohemiancoding.com/sketch/ns" viewBox="0 0 220 220" version="1.1" x="0px" y="0px"><title>stop</title><desc>Created with Sketch.</desc><g stroke="none" stroke-width="1" fill="none" fill-rule="evenodd" sketch:type="MSPage"><g sketch:type="MSArtboardGroup" transform="translate(-903.000000, -548.000000)" fill="#000000"><path d="M1123,658.00015 C1123,597.24842 1073.75158,548 1012.99955,548 C952.24872,547.9997 902.9997,597.24842 903,657.999551 C902.999401,718.747985 952.252614,768 1012.99985,768 C1013.00344,768 1012.99685,768 1013.00045,768 C1073.75068,768.000599 1123.0003,718.750981 1123,658.00015 Z M1073.71832,652 L953.281684,652 C949.8124,652 947,654.910452 947,658.5 C947,662.089857 949.8124,665 953.281684,665 L1073.71832,665 C1077.1876,665 1080,662.089857 1080,658.5 C1080,654.910452 1077.1876,652 1073.71832,652 Z M1050.91629,747.769392 C1038.91427,752.846064 1026.15744,755.420193 1012.99985,755.419894 C999.843755,755.419894 987.087527,752.846064 975.085207,747.769092 C963.486349,742.862551 953.066127,735.836263 944.115082,726.884918 C935.163737,717.933573 928.137149,707.51395 923.230908,695.914493 C918.153936,683.912173 915.579807,671.155946 915.580106,657.999551 C915.580106,644.842257 918.153936,632.08573 923.230608,620.08311 C928.13655,608.484252 935.162539,598.06433 944.113584,589.113285 C953.06463,580.16224 963.484252,573.13625 975.08341,568.230608 C987.08573,563.153936 999.842557,560.580106 1012.99955,560.580106 C1026.15684,560.580106 1038.91367,563.153936 1050.91629,568.230608 C1062.51545,573.13655 1072.93537,580.162539 1081.88612,589.113584 C1090.83716,598.06463 1097.86315,608.484552 1102.76939,620.08341 C1107.84576,632.086029 1110.41989,644.842856 1110.41989,658.00015 C1110.41989,671.157144 1107.84576,683.913971 1102.76939,695.916291 C1097.86315,707.515748 1090.83716,717.93567 1081.88612,726.886416 C1072.93537,735.837461 1062.51545,742.86345 1050.91629,747.769392 L1050.91629,747.769392 Z" sketch:type="MSShapeGroup"></path></g></g></svg>