<svg xmlns="http://www.w3.org/2000/svg" viewBox="0 0 24 24"><defs><style>.cls-1{fill:#4347b5;}</style></defs><title>overview</title><g id="Layer_2" data-name="Layer 2"><path class="cls-1" d="M12,0A12,12,0,1,0,24,12,12,12,0,0,0,12,0Zm9.93,10.86a30.79,30.79,0,0,1-4.44,1.26,18.74,18.74,0,0,0-3.14-9.83A10,10,0,0,1,21.93,10.86ZM9,14.56a28,28,0,0,0,2.89.15,29,29,0,0,0,3.47-.22,17.91,17.91,0,0,1-3.19,7.4A17.92,17.92,0,0,1,9,14.56Zm-.18-2a17.12,17.12,0,0,1,3.35-10,17.18,17.18,0,0,1,3.36,9.9A26.92,26.92,0,0,1,8.79,12.52ZM10,2.2a18.91,18.91,0,0,0-3.2,10,29,29,0,0,1-4.72-1.35A10,10,0,0,1,10,2.2ZM2.05,13a29.65,29.65,0,0,0,4.87,1.28,18.83,18.83,0,0,0,2.72,7.44A10,10,0,0,1,2.05,13ZM14.7,21.62a18.43,18.43,0,0,0,2.67-7.43A34.12,34.12,0,0,0,22,13,10,10,0,0,1,14.7,21.62Z"/></g></svg>