<svg xmlns="http://www.w3.org/2000/svg" xmlns:xlink="http://www.w3.org/1999/xlink" xmlns:sketch="http://www.bohemiancoding.com/sketch/ns" viewBox="0 0 220 220" version="1.1" x="0px" y="0px"><title>plus</title><desc>Created with Sketch.</desc><g stroke="none" stroke-width="1" fill="none" fill-rule="evenodd" sketch:type="MSPage"><g sketch:type="MSArtboardGroup" transform="translate(-1264.000000, -548.000000)" fill="#000000"><path d="M1373.9997,560.580089 C1387.15701,560.580089 1399.91386,563.154215 1411.91649,568.23088 C1423.51567,573.136815 1433.9353,580.162795 1442.88636,589.113528 C1451.83712,598.064561 1458.86342,608.48447 1463.76936,620.083611 C1468.84604,632.085915 1471.41988,644.843024 1471.41988,658.0003 C1471.41988,671.157276 1468.84604,683.914085 1463.76966,695.916389 C1458.86342,707.51553 1451.83712,717.935439 1442.88636,726.886472 C1433.9353,735.837504 1423.51567,742.863484 1411.91649,747.769419 C1399.91416,752.846384 1387.15761,755.42021 1374,755.419911 C1360.84389,755.419911 1348.08764,752.846085 1336.0856,747.76882 C1324.48643,742.862586 1314.0662,735.836306 1305.11514,726.884974 C1296.16348,717.933641 1289.13718,707.513733 1284.23094,695.914292 C1279.15396,683.912288 1276.57982,671.156078 1276.58012,657.999401 C1276.58012,644.842425 1279.15396,632.085615 1284.23064,620.083312 C1289.13658,608.48417 1296.16258,598.064262 1305.11364,589.113528 C1314.0647,580.162795 1324.48433,573.136516 1336.08351,568.230581 C1348.08584,563.153915 1360.84239,560.580089 1373.9997,560.580089 Z M1367,665 L1367,708.721173 C1367,712.18888 1369.91014,715 1373.5,715 C1377.08986,715 1380,712.18888 1380,708.721173 L1380,665 L1424.72119,665 C1428.18859,665 1431,662.089548 1431,658.5 C1431,654.909833 1428.18859,652 1424.72119,652 L1380,652 L1380,606.278827 C1380,602.81112 1377.08986,600 1373.5,600 C1369.91014,600 1367,602.81112 1367,606.278827 L1367,652 L1322.27881,652 C1318.81111,652 1316,654.909833 1316,658.5 C1316,662.089548 1318.81111,665 1322.27881,665 L1367,665 Z M1373.9997,548 C1313.24879,548 1263.9997,597.248653 1264,657.999401 C1263.9997,718.748052 1313.25298,768 1374,768 C1374.00359,768 1373.997,768 1374.0006,768 C1434.75091,768.0003 1484.0006,718.751048 1484,658.0003 C1484.0003,597.248653 1434.75151,548 1373.9997,548" sketch:type="MSShapeGroup"></path></g></g></svg>