<svg xmlns="http://www.w3.org/2000/svg" viewBox="0 0 29.66 21"><defs><style>.cls-1{fill:#fff;}</style></defs><title>settings</title><g id="Layer_2" data-name="Layer 2"><path class="cls-1" d="M4.83,4.32V1a1,1,0,0,0-2,0V4.32a3.81,3.81,0,0,0,0,7.36V20a1,1,0,0,0,2,0V11.68a3.81,3.81,0,0,0,0-7.36Zm0,5.21a2,2,0,0,1-.42.19l-.1,0a2,2,0,0,1-.48.07,1.85,1.85,0,0,1-.48-.07l-.1,0a2,2,0,0,1-.42-.19,1.83,1.83,0,0,1,0-3.06,2,2,0,0,1,.42-.19l.1,0a1.85,1.85,0,0,1,.48-.07,2,2,0,0,1,.48.07l.1,0a2,2,0,0,1,.42.19,1.83,1.83,0,0,1,0,3.06Z"/><path class="cls-1" d="M15.83,10.32V1a1,1,0,0,0-2,0v9.32a3.81,3.81,0,0,0,0,7.36V20a1,1,0,0,0,2,0V17.68a3.81,3.81,0,0,0,0-7.36Zm0,5.21a2,2,0,0,1-.42.19l-.1,0a2,2,0,0,1-.48.07,1.85,1.85,0,0,1-.48-.07l-.1,0a2,2,0,0,1-.42-.19,1.83,1.83,0,0,1,0-3.06,2,2,0,0,1,.42-.19l.1,0a1.85,1.85,0,0,1,.48-.07,2,2,0,0,1,.48.07l.1,0a2,2,0,0,1,.42.19,1.83,1.83,0,0,1,0,3.06Z"/><path class="cls-1" d="M26.83,6.32V1a1,1,0,0,0-2,0V6.32a3.81,3.81,0,0,0,0,7.36V20a1,1,0,0,0,2,0V13.68a3.81,3.81,0,0,0,0-7.36Zm0,5.21a2,2,0,0,1-.42.19l-.1,0a2,2,0,0,1-.48.07,1.85,1.85,0,0,1-.48-.07l-.1,0a2,2,0,0,1-.42-.19,1.83,1.83,0,0,1,0-3.06,2,2,0,0,1,.42-.19l.1,0a1.85,1.85,0,0,1,.48-.07,2,2,0,0,1,.48.07l.1,0a2,2,0,0,1,.42.19,1.83,1.83,0,0,1,0,3.06Z"/></g></svg>