<svg xmlns="http://www.w3.org/2000/svg" viewBox="0 0 24 24"><defs><style>.cls-1{fill:#4347b5;}</style></defs><title>tranaction history</title><g id="Layer_2" data-name="Layer 2"><path class="cls-1" d="M19.48,4.93a1,1,0,0,0,.73-.32,1,1,0,1,0-1.41,0A1,1,0,0,0,19.48,4.93Z"/><path class="cls-1" d="M16.57,3.1a1.07,1.07,0,0,0,.46.11,1,1,0,0,0,.46-1.89h0a1,1,0,0,0-.91,1.78Z"/><path class="cls-1" d="M21.62,9.26a1,1,0,0,0,1,.73,1.35,1.35,0,0,0,.28,0A1,1,0,1,0,22.31,8,1,1,0,0,0,21.62,9.26Z"/><path class="cls-1" d="M20.52,6.77h0a1,1,0,0,0,1.37.33,1,1,0,1,0-1.38-.33Z"/><path class="cls-1" d="M14,2.2l.2,0a1,1,0,1,0-.2,0Z"/><path class="cls-1" d="M23,11a1,1,0,0,0-1,1V12A10,10,0,1,1,12,2V1.63A1,1,0,0,0,12.21,1,1,1,0,0,0,12,.44V0c-.27,0-.54,0-.8,0h-.06l-.05,0A12,12,0,0,0,8,.69H8l-.06,0A12.14,12.14,0,0,0,5.12,2.18s0,0-.07,0,0,.06-.07.08A11.87,11.87,0,0,0,2.7,4.43l0,0,0,.06A12.07,12.07,0,0,0,1,7.2l0,0s0,0,0,0a12,12,0,0,0-.84,3.05s0,0,0,.06v.06A13.15,13.15,0,0,0,0,12a11.6,11.6,0,0,0,.12,1.57s0,.06,0,.08a.45.45,0,0,0,0,.11,12.23,12.23,0,0,0,.85,3s0,0,0,0a.43.43,0,0,0,0,.07,11.75,11.75,0,0,0,1.64,2.67s0,0,0,0l0,0A11.78,11.78,0,0,0,5,21.75s0,.05.06.06l.07,0a12.18,12.18,0,0,0,2.78,1.43l.06,0,.07,0a12.32,12.32,0,0,0,3.06.63h.17c.23,0,.46,0,.7,0a12,12,0,0,0,2.41-.24h.07a12,12,0,0,0,2.93-1l.12-.05,0,0a12.14,12.14,0,0,0,2.56-1.82l.06,0,0,0a11.62,11.62,0,0,0,1.94-2.37.4.4,0,0,0,.1-.12.32.32,0,0,0,0-.09,11.82,11.82,0,0,0,1.24-2.84l0-.07s0-.05,0-.08A12,12,0,0,0,24,12h0V12A1,1,0,0,0,23,11Z"/><path class="cls-1" d="M11,7.72v4a.24.24,0,0,0,0,.08,1.08,1.08,0,0,0,0,.19.64.64,0,0,0,.08.19.64.64,0,0,0,0,.07l2.5,4a1,1,0,0,0,.85.47,1,1,0,0,0,.53-.15,1,1,0,0,0,.32-1.38L13,11.44V7.72a1,1,0,1,0-2,0Z"/></g></svg>